# xmcd
#
# Track frame offsets: 
#        150
#        16431
#        30414
#        45325
#        60558
#        76104
#        88186
#        103392
#        121221
#        130834
#        146381
#        159753
#        174138
#        184421
#
# Disc length: 2660 seconds
#
# Revision: 0
# Processed by: cddbd v1.5.2PL0 Copyright (c) Steve Scherf et al.
# Submitted via: ExactAudioCopy v0.99pb5
#
DISCID=a60a620e
DTITLE=Frantisek Nedved - Ctvrta sada
DYEAR=2003
DGENRE=Folk
TTITLE0=Jako ptáci
TTITLE1=Laduv betlém
TTITLE2=I manekýnky stárnou
TTITLE3=Zpívám ti mín
TTITLE4=Stestí a smula
TTITLE5=Nafta, benzín a petrolej
TTITLE6=New York 2001
TTITLE7=Tak pojd blíz
TTITLE8=Má zena Julie
TTITLE9=Nesmis se bat bejt chvili sam
TTITLE10=Prázdný dùm
TTITLE11=To jsem já
TTITLE12=Dùm na konci námìstí
TTITLE13=Co s tim delat muzu
EXTD=
EXTT0=
EXTT1=
EXTT2=
EXTT3=
EXTT4=
EXTT5=
EXTT6=
EXTT7=
EXTT8=
EXTT9=
EXTT10=
EXTT11=
EXTT12=
EXTT13=
PLAYORDER=
